# xmcd
#
# Track frame offsets: 
#        150
#        24920
#        36980
#        53001
#        77588
#        82233
#        100292
#        120823
#        133275
#        138453
#
# Disc length: 2063 seconds
#
# Revision: 0
# Processed by: cddbd v1.5.2PL0 Copyright (c) Steve Scherf et al.
# Submitted via: ExactAudioCopy v0.99pb5
#
DISCID=7e080d0a
DTITLE=Jack Slater - Extinction Aftermath
DYEAR=2010
DGENRE=Death Metal
TTITLE0=Pheromon
TTITLE1=Dysthymia
TTITLE2=Martyr
TTITLE3=Funkenflug
TTITLE4=Happy Hour
TTITLE5=Omniscience
TTITLE6=4 8 15 16 23 42
TTITLE7=Konstrukt
TTITLE8=Resser Frednik
TTITLE9=Extinction Aftermath
EXTD=
EXTT0=
EXTT1=
EXTT2=
EXTT3=
EXTT4=
EXTT5=
EXTT6=
EXTT7=
EXTT8=
EXTT9=
PLAYORDER=
